<svg xmlns="http://www.w3.org/2000/svg" width="1200" height="630" viewBox="0 0 1200 630">
  <defs>
    <linearGradient id="bg" x1="0%" y1="0%" x2="0%" y2="100%">
      <stop offset="0%" style="stop-color:#0a0a1a"/>
      <stop offset="100%" style="stop-color:#16213e"/>
    </linearGradient>
    <linearGradient id="glow" x1="0%" y1="0%" x2="100%" y2="0%">
      <stop offset="0%" style="stop-color:#00d9ff;stop-opacity:0"/>
      <stop offset="50%" style="stop-color:#00d9ff;stop-opacity:1"/>
      <stop offset="100%" style="stop-color:#00d9ff;stop-opacity:0"/>
    </linearGradient>
    <filter id="shadow">
      <feDropShadow dx="0" dy="0" stdDeviation="10" flood-color="#00d9ff" flood-opacity="0.4"/>
    </filter>
  </defs>

  <!-- Background -->
  <rect width="1200" height="630" fill="url(#bg)"/>

  <!-- Grid pattern -->
  <g stroke="#1a1a3a" stroke-width="1" opacity="0.5">
    <line x1="0" y1="60" x2="1200" y2="60"/>
    <line x1="0" y1="120" x2="1200" y2="120"/>
    <line x1="0" y1="180" x2="1200" y2="180"/>
    <line x1="0" y1="240" x2="1200" y2="240"/>
    <line x1="0" y1="300" x2="1200" y2="300"/>
    <line x1="0" y1="360" x2="1200" y2="360"/>
    <line x1="0" y1="420" x2="1200" y2="420"/>
    <line x1="0" y1="480" x2="1200" y2="480"/>
    <line x1="60" y1="0" x2="60" y2="630"/>
    <line x1="120" y1="0" x2="120" y2="630"/>
    <line x1="180" y1="0" x2="180" y2="630"/>
    <line x1="240" y1="0" x2="240" y2="630"/>
    <line x1="300" y1="0" x2="300" y2="630"/>
    <line x1="360" y1="0" x2="360" y2="630"/>
    <line x1="420" y1="0" x2="420" y2="630"/>
    <line x1="480" y1="0" x2="480" y2="630"/>
    <line x1="540" y1="0" x2="540" y2="630"/>
    <line x1="600" y1="0" x2="600" y2="630"/>
    <line x1="660" y1="0" x2="660" y2="630"/>
    <line x1="720" y1="0" x2="720" y2="630"/>
    <line x1="780" y1="0" x2="780" y2="630"/>
    <line x1="840" y1="0" x2="840" y2="630"/>
    <line x1="900" y1="0" x2="900" y2="630"/>
    <line x1="960" y1="0" x2="960" y2="630"/>
    <line x1="1020" y1="0" x2="1020" y2="630"/>
    <line x1="1080" y1="0" x2="1080" y2="630"/>
    <line x1="1140" y1="0" x2="1140" y2="630"/>
  </g>

  <!-- Decorative lines -->
  <line x1="50" y1="200" x2="350" y2="200" stroke="#00d9ff" stroke-width="2" opacity="0.3"/>
  <line x1="850" y1="200" x2="1150" y2="200" stroke="#00d9ff" stroke-width="2" opacity="0.3"/>

  <!-- Avatar circle -->
  <circle cx="200" cy="250" r="90" fill="#0a0a1a" stroke="#00d9ff" stroke-width="4" filter="url(#shadow)"/>
  <circle cx="200" cy="250" r="82" fill="none" stroke="#00ff88" stroke-width="2" opacity="0.5"/>
  <!-- Avatar icon -->
  <text x="200" y="255" text-anchor="middle" font-size="70" fill="#00d9ff" font-family="Arial, sans-serif">👨‍💻</text>

  <!-- Glow behind avatar -->
  <circle cx="200" cy="250" r="110" fill="none" stroke="#00d9ff" stroke-width="1" opacity="0.15"/>

  <!-- Title -->
  <text x="600" y="165" text-anchor="middle" font-size="52" font-weight="bold" fill="white" font-family="Arial Black, sans-serif" letter-spacing="4">HÂN NGUYỄN</text>

  <!-- Title underline -->
  <line x1="350" y1="185" x2="850" y2="185" stroke="url(#glow)" stroke-width="2"/>

  <!-- Subtitle -->
  <text x="600" y="235" text-anchor="middle" font-size="28" fill="#00d9ff" font-family="Arial, sans-serif" font-weight="bold">Senior Web3 Developer</text>

  <!-- Services -->
  <text x="600" y="285" text-anchor="middle" font-size="18" fill="#888888" font-family="Arial, sans-serif">Smart Contract  •  DeFi Protocol  •  NFT Marketplace  •  GameFi Platform</text>

  <!-- Stats section -->
  <g font-family="Arial, sans-serif">
    <!-- Stat 1 -->
    <text x="250" y="365" text-anchor="middle" font-size="36" font-weight="bold" fill="#00ff88">5+</text>
    <text x="250" y="395" text-anchor="middle" font-size="14" fill="#888888">Năm kinh nghiệm</text>

    <!-- Stat 2 -->
    <text x="600" y="365" text-anchor="middle" font-size="36" font-weight="bold" fill="#00ff88">$100M+</text>
    <text x="600" y="395" text-anchor="middle" font-size="14" fill="#888888">TVL Deployed</text>

    <!-- Stat 3 -->
    <text x="950" y="365" text-anchor="middle" font-size="36" font-weight="bold" fill="#00ff88">50+</text>
    <text x="950" y="395" text-anchor="middle" font-size="14" fill="#888888">Projects hoàn thành</text>
  </g>

  <!-- Horizontal divider -->
  <line x1="100" y1="420" x2="1100" y2="420" stroke="#1a1a3a" stroke-width="1"/>

  <!-- Services icons row -->
  <g font-family="Arial, sans-serif" font-size="13" fill="#aaa">
    <text x="200" y="460" text-anchor="middle">📜 Smart Contract</text>
    <text x="470" y="460" text-anchor="middle">💱 DeFi Protocol</text>
    <text x="740" y="460" text-anchor="middle">🖼️ NFT Marketplace</text>
    <text x="1010" y="460" text-anchor="middle">🎮 GameFi Platform</text>
  </g>

  <!-- Pricing preview -->
  <g font-family="Arial, sans-serif">
    <rect x="100" y="475" width="200" height="50" rx="8" fill="#0d1117" stroke="#00d9ff" stroke-width="1" opacity="0.8"/>
    <text x="200" y="500" text-anchor="middle" font-size="12" fill="#888">Starting from</text>
    <text x="200" y="518" text-anchor="middle" font-size="18" font-weight="bold" fill="#00ff88">$5,000</text>

    <rect x="500" y="475" width="200" height="50" rx="8" fill="#0d1117" stroke="#00ff88" stroke-width="1" opacity="0.8"/>
    <text x="600" y="500" text-anchor="middle" font-size="12" fill="#888">Avg. Project</text>
    <text x="600" y="518" text-anchor="middle" font-size="18" font-weight="bold" fill="#00ff88">$15,000</text>

    <rect x="900" y="475" width="200" height="50" rx="8" fill="#0d1117" stroke="#ffd700" stroke-width="1" opacity="0.8"/>
    <text x="1000" y="500" text-anchor="middle" font-size="12" fill="#888">Enterprise</text>
    <text x="1000" y="518" text-anchor="middle" font-size="18" font-weight="bold" fill="#ffd700">$50,000+</text>
  </g>

  <!-- Bottom contact bar -->
  <rect x="0" y="570" width="1200" height="60" fill="#00d9ff"/>
  <text x="600" y="600" text-anchor="middle" font-size="18" fill="#0a0a1a" font-family="Arial, sans-serif" font-weight="bold">
    📧 tadanghan9@gmail.com  |  💬 @tadanghan9  |  🌐 hanweb3.dev
  </text>

  <!-- Border glow -->
  <rect x="2" y="2" width="1196" height="626" fill="none" stroke="#00d9ff" stroke-width="3" rx="5"/>

  <!-- Corner accents -->
  <rect x="0" y="0" width="40" height="5" fill="#00d9ff"/>
  <rect x="0" y="0" width="5" height="40" fill="#00d9ff"/>
  <rect x="1160" y="0" width="40" height="5" fill="#00d9ff"/>
  <rect x="1195" y="0" width="5" height="40" fill="#00d9ff"/>
  <rect x="0" y="625" width="40" height="5" fill="#00d9ff"/>
  <rect x="0" y="590" width="5" height="40" fill="#00d9ff"/>
  <rect x="1160" y="625" width="40" height="5" fill="#00d9ff"/>
  <rect x="1195" y="590" width="5" height="40" fill="#00d9ff"/>
</svg>
